# Blender v2.78 (sub 0) OBJ File: 'CNCInscriber.blend'
# www.blender.org
mtllib CNCInscriber.mtl
o Geäuse_Plane
v -1.500000 0.000000 2.500000
v 1.500000 0.000000 2.500000
v -1.500000 0.000000 -2.500000
v 1.500000 0.000000 -2.500000
v -1.000000 0.000000 2.187500
v 1.312500 0.000000 -2.187500
v -1.000000 0.000000 -2.187500
v 1.312500 0.000000 2.187500
v 1.500000 0.000000 2.187500
v -1.500000 0.000000 2.500000
v 1.500000 0.000000 2.500000
v -1.500000 0.000000 -2.500000
v -1.000000 0.000000 2.187500
v -1.000000 0.000000 -2.187500
v 1.312500 0.000000 2.187500
v 1.500000 0.000000 2.187500
v -1.500000 0.000000 -2.500000
v -1.000000 0.000000 -2.187500
v -1.500000 0.000000 2.500000
v 1.500000 0.000000 2.500000
v -1.500000 0.000000 -2.500000
v -1.000000 0.000000 2.187500
v -1.000000 0.000000 -2.187500
v 1.312500 0.000000 2.187500
v 1.500000 0.000000 2.187500
v -1.500000 0.000000 -2.500000
v 1.500000 0.000000 -2.500000
v 1.312500 0.000000 -2.187500
v -1.000000 0.000000 -2.187500
v -1.500000 0.000000 2.500000
v 1.500000 0.000000 2.500000
v -1.500000 0.000000 -2.500000
v -1.000000 0.000000 2.187500
v -1.000000 0.000000 -2.187500
v 1.312500 0.000000 2.187500
v 1.500000 0.000000 2.187500
v 1.500000 0.000000 -2.187500
v 1.312500 0.000000 -2.187500
v 1.500000 3.000000 -2.500000
v -1.500000 3.000000 -2.500000
v 1.500000 3.000000 -2.500000
v 1.312500 3.000000 -2.187500
v -1.000000 3.000000 -2.187500
v -1.500000 3.000000 2.500000
v 1.500000 3.000000 2.500000
v -1.500000 3.000000 -2.500000
v -1.000000 3.000000 2.187500
v -1.000000 3.000000 -2.187500
v 1.312500 3.000000 2.187500
v 1.500000 3.000000 2.187500
v 1.500000 3.000000 -2.187500
v 1.312500 3.000000 -2.187500
v -1.000000 0.375000 2.187500
v 1.312500 0.375000 -2.187500
v -1.000000 0.375000 -2.187500
v 1.312500 0.375000 2.187500
v 1.500000 0.375000 2.187500
v 1.500000 0.375000 -2.187500
v 1.312500 0.375000 -2.187500
vn 1.0000 0.0000 0.0000
vn 0.0000 0.0000 1.0000
vn 0.0000 0.0000 -1.0000
vn 0.0000 1.0000 0.0000
vn -1.0000 0.0000 0.0000
vn 0.0000 -1.0000 0.0000
usemtl None
s off
f 9//1 37//1 58//1 57//1
f 3//2 1//2 10//2 12//2
f 12//2 10//2 19//2 21//2
f 19//2 20//2 31//2 30//2
f 8//2 5//2 13//2 15//2
f 5//2 7//2 14//2 13//2
f 2//2 9//2 16//2 11//2
f 1//2 2//2 11//2 10//2
f 15//2 13//2 22//2 24//2
f 13//2 14//2 23//2 22//2
f 11//2 16//2 25//2 20//2
f 14//2 7//2 18//2 23//2
f 10//2 11//2 20//2 19//2
f 3//2 12//2 21//2 17//2
f 24//2 22//2 33//2 35//2
f 21//2 19//2 30//2 32//2
f 17//2 21//2 32//2 26//2
f 20//2 25//2 36//2 31//2
f 22//2 23//2 34//2 33//2
f 23//2 18//2 29//2 34//2
f 25//2 24//2 35//2 36//2
f 37//3 38//3 59//3 58//3
f 28//2 38//2 52//2 42//2
f 9//3 5//3 53//3 57//3
f 51//4 39//4 41//4 40//4 46//4 44//4 45//4 50//4 49//4 47//4 48//4 43//4 42//4 52//4
f 29//2 28//2 42//2 43//2
f 26//2 32//2 46//2 40//2
f 37//1 4//1 39//1 51//1
f 27//3 26//3 40//3 41//3
f 34//2 29//2 43//2 48//2
f 33//1 34//1 48//1 47//1
f 30//2 31//2 45//2 44//2
f 32//5 30//5 44//5 46//5
f 31//1 36//1 50//1 45//1
f 4//2 27//2 41//2 39//2
f 36//3 35//3 49//3 50//3
f 38//2 37//2 51//2 52//2
f 35//3 33//3 47//3 49//3
f 53//4 56//4 54//4 55//4
f 57//4 58//4 59//4 54//4 56//4
f 53//2 56//2 57//2
f 6//3 7//3 55//3 54//3
f 7//5 5//5 53//5 55//5
f 38//2 6//2 54//2 59//2
f 1//6 3//6 4//6 37//6 9//6 2//6
o Achse_Cube.009
v -1.450000 1.750000 0.250000
v -1.450000 2.250000 0.250000
v -1.450000 1.750000 -0.250000
v -1.450000 2.250000 -0.250000
v 0.050000 1.750000 0.250000
v 0.050000 2.250000 0.250000
v 0.050000 1.750000 -0.250000
v 0.050000 2.250000 -0.250000
vn -1.0000 0.0000 0.0000
vn 0.0000 0.0000 -1.0000
vn 1.0000 0.0000 0.0000
vn 0.0000 0.0000 1.0000
vn 0.0000 -1.0000 0.0000
vn 0.0000 1.0000 0.0000
usemtl None
s off
f 60//7 61//7 63//7 62//7
f 62//8 63//8 67//8 66//8
f 66//9 67//9 65//9 64//9
f 64//10 65//10 61//10 60//10
f 62//11 66//11 64//11 60//11
f 67//12 63//12 61//12 65//12
o Tür_Cube.008
v 1.376250 0.900000 1.509942
v 1.376250 2.100000 1.509942
v 1.376250 0.900000 -1.510058
v 1.376250 2.100000 -1.510058
v 1.501250 0.900000 1.509942
v 1.501250 2.100000 1.509942
v 1.501250 0.900000 -1.510058
v 1.501250 2.100000 -1.510058
v 1.376250 0.900000 1.509942
v 1.376250 2.100000 1.509942
v 1.376250 0.900000 -1.510058
v 1.376250 2.100000 -1.510058
v 1.501250 0.900000 1.509942
v 1.501250 2.100000 1.509942
v 1.501250 0.900000 -1.510058
v 1.501250 2.100000 -1.510058
v 1.376250 2.100000 1.509942
v 1.376250 2.100000 -1.510058
v 1.501250 2.100000 1.509942
v 1.501250 2.100000 -1.510058
v 1.376250 3.000000 1.509942
v 1.376250 3.000000 -1.510058
v 1.501250 3.000000 1.509942
v 1.501250 3.000000 -1.510058
v 1.376250 2.100000 -1.510058
v 1.501250 2.100000 -1.510058
v 1.376250 3.000000 -1.510058
v 1.501250 3.000000 -1.510058
v 1.376250 2.100000 -2.187500
v 1.501250 2.100000 -2.187500
v 1.376250 3.000000 -2.187500
v 1.501250 3.000000 -2.187500
v 1.376250 2.100000 -1.510058
v 1.501250 2.100000 -1.510058
v 1.376250 2.100000 -2.187500
v 1.501250 2.100000 -2.187500
v 1.376250 0.375000 -1.510058
v 1.501250 0.375000 -1.510058
v 1.376250 0.375000 -2.187500
v 1.501250 0.375000 -2.187500
v 1.376250 0.375000 1.509942
v 1.376250 0.375000 -1.510058
v 1.501250 0.375000 1.509942
v 1.501250 0.375000 -1.510058
v 1.376250 0.375000 1.509942
v 1.376250 0.375000 -1.510058
v 1.501250 0.375000 1.509942
v 1.501250 0.375000 -1.510058
v 1.376250 0.900000 1.509942
v 1.376250 2.100000 1.509942
v 1.501250 0.900000 1.509942
v 1.501250 2.100000 1.509942
v 1.376250 0.900000 2.187500
v 1.376250 2.100000 2.187500
v 1.501250 0.900000 2.187500
v 1.501250 2.100000 2.187500
v 1.376250 0.900000 2.187500
v 1.376250 2.100000 2.187500
v 1.501250 0.900000 2.187500
v 1.501250 2.100000 2.187500
v 1.376250 0.900000 1.509942
v 1.376250 0.900000 2.187500
v 1.376250 0.900000 1.509942
v 1.501250 0.900000 1.509942
v 1.376250 0.900000 2.187500
v 1.501250 0.900000 2.187500
v 1.376250 0.375000 1.509942
v 1.501250 0.375000 1.509942
v 1.376250 0.375000 2.187500
v 1.501250 0.375000 2.187500
v 1.376250 2.100000 1.509942
v 1.501250 2.100000 1.509942
v 1.376250 2.100000 2.187500
v 1.501250 2.100000 2.187500
v 1.376250 3.000000 1.509942
v 1.501250 3.000000 1.509942
v 1.376250 3.000000 2.187500
v 1.501250 3.000000 2.187500
v 1.501250 2.100000 -1.510058
v 1.501250 0.900000 -1.510058
v 1.501250 0.900000 1.509942
v 1.501250 0.900000 1.509942
v 1.501250 2.100000 1.509942
v 1.376250 0.900000 -1.510058
v 1.376250 0.900000 -1.510058
v 1.376250 0.900000 1.509942
v 1.376250 0.900000 1.509942
v 1.376250 2.100000 1.509942
v 1.376250 2.100000 1.509942
v 1.376250 2.100000 -1.510058
v 1.376250 2.100000 -1.510058
v 1.501250 0.900000 -1.510058
v 1.501250 0.900000 -1.510058
v 1.501250 2.100000 -1.510058
v 1.501250 2.100000 -1.510058
v 1.501250 0.900000 1.509942
v 1.501250 0.900000 1.509942
v 1.501250 2.100000 1.509942
v 1.501250 2.100000 1.509942
v 1.376250 0.900000 1.509942
v 1.501250 0.900000 1.509942
vn 1.0000 0.0000 0.0000
vn 0.0000 0.0000 1.0000
vn -1.0000 0.0000 0.0000
vn 0.0000 0.0000 -1.0000
vn 0.0000 -1.0000 0.0000
vn 0.0000 1.0000 0.0000
usemtl None
s off
f 68//13 70//13 71//13 69//13
f 70//14 147//14 146//14 71//14
f 74//15 148//15 150//15 75//15
f 68//14 69//14 117//14 167//14
f 68//16 149//16 110//16 108//16
f 146//14 73//14 86//14 87//14
f 153//15 155//15 157//15 151//15
f 152//16 158//16 161//16 159//16
f 160//13 162//13 165//13 163//13
f 164//14 166//14 156//14 154//14
f 78//17 82//17 80//17 76//17
f 83//18 79//18 77//18 81//18
f 69//14 71//14 85//14 84//14
f 73//14 69//14 84//14 86//14
f 71//14 146//14 87//14 85//14
f 86//16 84//16 88//16 90//16
f 85//14 87//14 93//14 92//14
f 96//14 97//14 99//14 98//14
f 167//13 117//13 138//13 142//13 144//13 140//13 121//13 120//13 132//13 136//13 134//13 130//13
f 100//16 101//16 105//16 104//16
f 97//14 96//14 102//14 103//14
f 92//14 93//14 101//14 100//14
f 104//17 106//17 107//17 105//17
f 119//15 168//15 131//15 135//15 137//15 133//15 122//15 123//15 141//15 145//15 143//15 139//15
f 103//14 102//14 106//14 107//14
f 84//13 85//13 92//13 100//13 104//13 106//13 102//13 96//13 98//13 94//13 89//13 88//13
f 110//14 111//14 115//14 114//14
f 147//14 70//14 109//14 111//14
f 70//13 68//13 108//13 109//13
f 149//15 147//15 111//15 110//15
f 113//17 115//17 114//17 112//17
f 109//14 108//14 112//14 113//14
f 108//14 110//14 114//14 112//14
f 111//14 109//14 113//14 115//14
f 149//14 68//14 167//14 118//14
f 69//14 73//14 119//14 117//14
f 73//14 72//14 168//14 119//14
f 122//14 120//14 124//14 126//14
f 126//16 124//16 125//16 127//16
f 120//14 121//14 125//14 124//14
f 121//14 123//14 127//14 125//14
f 123//14 122//14 126//14 127//14
f 116//14 120//14 129//14 128//14
f 120//14 122//14 133//14 132//14
f 168//14 167//14 130//14 131//14
f 135//17 137//17 136//17 134//17
f 132//16 133//16 137//16 136//16
f 131//14 130//14 134//14 135//14
f 123//14 121//14 140//14 141//14
f 117//14 119//14 139//14 138//14
f 142//18 144//18 145//18 143//18
f 138//14 139//14 143//14 142//14
f 141//16 140//16 144//16 145//16
f 87//15 86//15 90//15 91//15 95//15 99//15 97//15 103//15 107//15 105//15 101//15 93//15
f 91//18 95//18 99//18 98//18 94//18 89//18 88//18 90//18
o Tisch_Cube.007
v -0.500000 0.112500 1.750000
v -0.500000 0.487500 1.750000
v -0.500000 0.112500 -1.750000
v -0.500000 0.487500 -1.750000
v 0.500000 0.112500 1.750000
v 0.500000 0.487500 1.750000
v 0.500000 0.112500 -1.750000
v 0.500000 0.487500 -1.750000
v -0.500000 0.487500 -1.750000
v 0.500000 0.487500 -1.750000
v -0.500000 0.487500 -0.494979
v 0.500000 0.487500 -0.500881
v -0.500000 0.487500 -0.500000
v 0.500000 0.487500 -0.500000
v 0.500000 0.487500 0.500000
v -0.500000 0.487500 0.500000
v 0.500000 0.487500 0.750000
v -0.500000 0.487500 0.750000
v -0.500000 0.487500 -0.750000
v 0.500000 0.487500 -0.750000
v -0.500000 0.862500 -0.750000
v -0.500000 0.862500 -1.750000
v 0.500000 0.862500 -1.750000
v 0.500000 0.862500 -0.750000
v -0.500000 0.487500 0.500000
v -0.500000 0.487500 -0.494979
v -0.500000 0.487500 -0.500000
v 0.500000 0.487500 -0.500000
v 0.500000 0.487500 0.500000
v -0.500000 0.862500 0.500000
v -0.500000 0.862500 -0.500000
v 0.500000 0.862500 -0.500000
v 0.500000 0.862500 0.500000
v 0.500000 0.862500 0.750000
v 0.500000 0.862500 1.750000
v -0.500000 0.862500 1.750000
v -0.500000 0.862500 0.750000
v 0.500000 0.862500 0.750000
v 0.500000 0.862500 1.750000
v -0.500000 0.862500 1.750000
v -0.500000 0.862500 0.750000
vn -1.0000 -0.0000 0.0000
vn 0.0000 0.0000 -1.0000
vn 1.0000 0.0000 0.0000
vn 0.0000 0.0000 1.0000
vn 0.0000 -1.0000 0.0000
vn 0.0000 1.0000 0.0000
usemtl None
s off
f 169//19 170//19 186//19 184//19 179//19 181//19 187//19 172//19 171//19
f 171//20 172//20 176//20 175//20
f 175//21 176//21 188//21 180//21 182//21 183//21 185//21 174//21 173//21
f 173//22 174//22 170//22 169//22
f 171//23 175//23 173//23 169//23
f 170//22 174//22 203//22 204//22
f 188//24 187//24 181//24 182//24 180//24
f 181//22 179//22 194//22 195//22
f 183//24 184//24 186//24 185//24
f 187//22 188//22 192//22 189//22
f 191//24 190//24 189//24 192//24
f 172//19 187//19 189//19 190//19
f 176//20 172//20 190//20 191//20
f 188//21 176//21 191//21 192//21
f 196//20 195//20 199//20 200//20
f 179//22 184//22 193//22 194//22
f 184//22 183//22 197//22 193//22
f 183//22 182//22 196//22 197//22
f 182//22 181//22 195//22 196//22
f 200//24 199//24 198//24 201//24
f 197//21 196//21 200//21 201//21
f 193//22 197//22 201//22 198//22
f 202//22 205//22 209//22 206//22
f 186//19 170//19 204//19 205//19
f 185//20 186//20 205//20 202//20
f 174//21 185//21 202//21 203//21
f 195//19 194//19 193//19 198//19 199//19
f 206//24 209//24 208//24 207//24
f 204//22 203//22 207//22 208//22
f 205//22 204//22 208//22 209//22
f 203//22 202//22 206//22 207//22
l 177 178
o Spindel_Cube.006
v -0.375000 1.500000 0.375000
v -0.375000 2.500000 0.375000
v -0.375000 1.500000 -0.375000
v -0.375000 2.500000 -0.375000
v 0.375000 1.500000 0.375000
v 0.375000 2.500000 0.375000
v 0.375000 1.500000 -0.375000
v 0.375000 2.500000 -0.375000
v 0.375000 1.500000 0.375000
v 0.375000 1.500000 -0.375000
v 0.375000 1.500000 0.375000
v 0.375000 1.500000 -0.375000
v 0.375000 1.500000 0.375000
v 0.375000 1.500000 -0.375000
v 0.375000 2.500000 -0.375000
v 0.375000 1.500000 -0.375000
v 0.375000 1.500000 0.375000
v 0.375000 2.500000 0.375000
v 0.375000 2.500000 -0.375000
v 0.375000 1.500000 -0.375000
v 0.375000 1.500000 0.375000
v 0.375000 2.500000 0.375000
v 0.375000 1.500000 0.375000
v 0.375000 1.500000 0.375000
v 0.375000 1.500000 0.375000
v 0.375000 1.500000 0.375000
v 0.375000 1.500000 -0.375000
v 0.375000 1.500000 0.375000
v 0.375000 1.500000 0.375000
v 0.375000 1.500000 -0.375000
v 0.375000 1.500000 -0.375000
v 0.375000 1.500000 -0.375000
v 0.375000 1.500000 -0.375000
v 0.375000 1.500000 -0.375000
v 0.405514 2.500000 -0.375000
v 0.500000 1.500000 -0.375000
v 0.500000 1.500000 0.375000
v 0.405514 2.500000 0.375000
v -0.375000 1.500000 0.375000
v -0.375000 1.500000 0.375000
v 0.375000 1.500000 0.375000
v 0.375000 1.500000 0.375000
v 0.375000 1.500000 0.375000
v 0.375000 1.500000 0.375000
v 0.500000 1.500000 0.375000
v 0.500000 1.500000 0.375000
vn -1.0000 0.0000 0.0000
vn 0.0000 0.0000 -1.0000
vn 0.0000 0.0000 1.0000
vn 0.0000 1.0000 0.0000
vn 0.9956 0.0941 0.0000
vn 0.0000 -1.0000 0.0000
usemtl None
s off
f 210//25 249//25 211//25 213//25 212//25 248//25
f 212//26 213//26 217//26 216//26 241//26 236//26
f 231//27 230//27 226//27 253//27 227//27
f 250//27 249//27 210//27 233//27
f 241//27 216//27 214//27 237//27
f 217//28 213//28 211//28 215//28
f 218//27 214//27 238//27 234//27 220//27 222//27
f 220//27 221//27 223//27 222//27
f 214//27 216//27 242//27 238//27
f 216//27 219//27 223//27 221//27 239//27 242//27
f 219//27 218//27 222//27 223//27
f 253//27 226//27 246//27 255//27
f 230//27 229//27 225//27 252//27 226//27
f 228//27 231//27 227//27 224//27
f 229//27 228//27 224//27 225//27
f 217//27 215//27 231//27 228//27
f 216//27 217//27 228//27 229//27 240//27 243//27
f 214//27 216//27 243//27 232//27
f 215//27 214//27 232//27 235//27 230//27 231//27
f 248//27 251//27 233//27 210//27
f 234//27 239//27 221//27 220//27
f 235//27 240//27 229//27 230//27
f 236//27 241//27 237//27 250//27 233//27 251//27
f 238//27 242//27 239//27 234//27
f 232//27 243//27 240//27 235//27
f 245//29 244//29 247//29 255//29 246//29 254//29
f 226//27 252//27 254//27 246//27
f 224//28 227//28 247//28 244//28
f 225//26 224//26 244//26 245//26
f 212//30 236//30 251//30 248//30
f 214//27 215//27 211//27 249//27 250//27 237//27
f 252//30 225//30 245//30 254//30
f 227//27 253//27 255//27 247//27
